<?xml version="1.0" standalone="no"?><!DOCTYPE svg PUBLIC "-//W3C//DTD SVG 1.1//EN" "http://www.w3.org/Graphics/SVG/1.1/DTD/svg11.dtd"><svg t="1593753470611" class="icon" viewBox="0 0 1024 1024" version="1.1" xmlns="http://www.w3.org/2000/svg" p-id="3395" xmlns:xlink="http://www.w3.org/1999/xlink" width="200" height="200"><defs><style type="text/css"></style></defs><path d="M544.352664 522.817075h117.041243v52.138794h-117.041243zM544.352664 620.786756h117.041243v52.138794h-117.041243zM364.971558 522.817075h117.041243v52.138794H364.971558zM408.239858 278.5828A521.930026 521.930026 0 0 0 517.64262 349.891718a442.34198 442.34198 0 0 0 117.041244-71.259638z" p-id="3396"></path><path d="M512.566726 0C384.092401 0 273.408345 25.42875 178.001251 76.335531H12.812936V78.848838l29.075509 417.110352a457.126137 457.126137 0 0 0 202.050147 348.561143l267.149718 179.381106 267.149719-179.381106a454.908513 454.908513 0 0 0 203.528562-348.561143l29.272631-419.771501h-164.104143C751.725107 25.42875 641.041051 0 512.566726 0z m265.868425 470.678281c-114.478656-13.995669-200.965975-33.067231-262.073825-57.263968a1338.114057 1338.114057 0 0 1-203.528562 57.263968H727.380528v272.225612h-67.267914v-24.147456H363.739545v24.147456H296.274508v-271.042879l-49.576207 8.969055a213.63107 213.63107 0 0 0-8.919775-30.504644 231.224217 231.224217 0 0 0-11.433081-30.504644c87.768613-10.201068 160.260263-25.42875 217.524231-44.352472-22.915443-10.201068-50.8575-31.785938-83.77689-63.621156a486.54661 486.54661 0 0 1-78.848838 62.339863L259.215554 352.355744q-15.276962-19.071563-22.915443-26.710044c71.259637-45.781606 125.911738-96.688387 165.385437-153.903075l72.49165 13.995668c-2.562587 3.843881-7.638481 10.201068-13.995669 19.071563A116.252755 116.252755 0 0 0 446.481544 223.881419h284.841426V280.898985A574.1181 574.1181 0 0 1 599.251167 376.552481c55.982675 15.276962 123.201309 25.42875 200.965975 30.553925a533.412388 533.412388 0 0 0-21.781991 63.571875z" p-id="3397"></path><path d="M364.971558 620.786756h117.041243v52.138794H364.971558z" p-id="3398"></path></svg>