<?xml version="1.0" standalone="no"?><!DOCTYPE svg PUBLIC "-//W3C//DTD SVG 1.1//EN" "http://www.w3.org/Graphics/SVG/1.1/DTD/svg11.dtd"><svg t="1597910630697" class="icon" viewBox="0 0 1024 1024" version="1.1" xmlns="http://www.w3.org/2000/svg" p-id="1088" xmlns:xlink="http://www.w3.org/1999/xlink" width="200" height="200"><defs><style type="text/css"></style></defs><path d="M425.216 377.888h97.408c16-67.232 34.336-117.28 55.008-150.08a227.136 227.136 0 0 1 80.672-77.632c33.12-18.976 64.384-28.48 93.696-28.48 16.576 0 29.056 3.232 37.504 9.696s12.64 14.112 12.64 22.976c0 8.064-2.88 14.816-8.576 20.192-5.76 5.376-13.184 8.064-22.432 8.064-9.568 0-27.488-2.816-53.888-8.48-13.056-2.688-23.264-4.032-30.624-4.032-17.952 0-34.112 10.976-48.576 32.864-14.368 21.92-25.952 51.584-34.688 88.96l-20.448 85.92h107.936l-6.496 28.64h-109.44l-63.744 257.408c-19.872 78.208-51.584 137.536-95.168 177.888-43.616 40.32-90.944 60.512-142.016 60.512-17.12 0-30.08-3.328-38.912-9.92s-13.248-14.688-13.248-24.416a24.32 24.32 0 0 1 9.184-19.936c6.08-4.96 14.848-7.424 26.272-7.424 5.696 0 14.112 0.672 25.28 2.016 19.008 2.4 37.216 3.616 54.624 3.616 26.88 0 46.432-6.24 58.656-18.752 12.224-12.544 24.448-43.136 36.672-91.776L515.2 406.528h-97.344l7.36-28.64z" fill="#d81e06" p-id="1089"></path></svg>